<svg width="22" height="24" viewBox="0 0 22 24" fill="none" xmlns="http://www.w3.org/2000/svg">
<path d="M19.2392 8.52667L16.0381 0.995584H12.055L11.5825 0H6.55997C3.38927 0 0.809814 2.5795 0.809814 5.75011C0.809814 8.92071 3.38932 11.5002 6.55997 11.5002H7.94007V19.9834C7.94007 21.6402 8.88362 23.1202 10.4025 23.8458L10.7253 24L16.2746 21.2842L18.4105 14.012L21.1902 11.5399V8.52667H19.2392ZM19.7107 10.8757L17.1105 13.1882L15.0388 20.242L10.7399 22.3458C9.91767 21.83 9.41949 20.952 9.41949 19.9834V10.0207H6.55992C4.2051 10.0207 2.28923 8.10493 2.28923 5.75011C2.28923 3.39528 4.20505 1.47947 6.55997 1.47947H10.647L11.1194 2.47505H15.0595L18.2604 10.0061H19.7107V10.8757H19.7107Z" fill="#3E0563"/>
</svg>
