<svg width="80" height="80" viewBox="0 0 80 80" fill="none" xmlns="http://www.w3.org/2000/svg">
<g clip-path="url(#clip0_1_116)">
<path d="M76.1396 39.4808L68.4323 39.4791C66.3047 39.4808 64.577 41.2051 64.5736 43.3327V75.9523C64.5736 78.0834 66.3047 79.8093 68.4323 79.8093H76.1396C78.2706 79.8093 80 78.0834 80 75.9523V43.3396C80 41.2085 78.2706 39.4808 76.1396 39.4808ZM73.0672 75.7804C71.8315 77.0178 69.8281 77.0178 68.5923 75.7804C67.3566 74.543 67.3566 72.543 68.5923 71.3072C69.8281 70.0681 71.8332 70.0681 73.0672 71.3072C74.3013 72.5413 74.3013 74.543 73.0672 75.7804Z" fill="#FA9706"/>
<path d="M49.4945 16.6723C49.8298 11.7549 51.1438 9.26636 51.6017 4.41019C51.8638 1.64253 48.9651 0.190613 43.6919 0.190613C38.4187 0.190613 36.3762 4.91061 35.7804 6.51912C34.463 10.08 35.7804 21.8127 35.7804 27.6153C35.7804 32.1872 27.6017 34.6961 18.2434 34.7115C5.37021 34.737 1.25789e-06 31.6595 1.25789e-06 39.7361C1.25789e-06 42.531 1.72426 44.7966 3.85532 44.7949C1.72426 44.7949 -0.00170087 47.0655 1.25789e-06 49.857C1.25789e-06 52.6485 1.72426 54.9191 3.85532 54.914C1.72426 54.9174 0.00170339 57.183 1.25789e-06 59.971C1.25789e-06 62.771 1.72766 65.0315 3.85532 65.0349C1.72766 65.0315 1.25788e-06 67.2987 0.00170339 70.0987C0.00170339 72.8953 1.72596 75.1574 3.85532 75.1574C3.85532 75.1574 9.33447 75.1625 30.1174 75.1625C50.9004 75.1625 58.4936 75.1625 58.4936 75.1625C59.5574 75.1625 60.4187 74.2995 60.4204 73.2323V43.9489C60.4221 43.6374 60.3438 43.3327 60.2008 43.057C60.1991 43.057 48.5702 30.2519 49.4945 16.6723Z" fill="#FA9706"/>
</g>
<defs>
<clipPath id="clip0_1_116">
<rect width="80" height="80" fill="white"/>
</clipPath>
</defs>
</svg>
