<svg width="24" height="24" viewBox="0 0 24 24" fill="none" xmlns="http://www.w3.org/2000/svg">
<g clip-path="url(#clip0_1_8462)">
<path d="M11.9999 23.9998C18.6273 23.9998 23.9998 18.6273 23.9998 11.9999C23.9998 5.37254 18.6273 0 11.9999 0C5.37254 0 0 5.37254 0 11.9999C0 18.6273 5.37254 23.9998 11.9999 23.9998Z" fill="#55ACEE"/>
<path d="M19.3503 8.62396C18.8361 8.85199 18.2829 9.00622 17.7028 9.0751C18.2951 8.72022 18.7497 8.15871 18.9642 7.48853C18.41 7.81731 17.7959 8.05582 17.1428 8.18438C16.6196 7.62715 15.8741 7.2789 15.0486 7.2789C13.4648 7.2789 12.1803 8.56343 12.1803 10.1472C12.1803 10.372 12.2058 10.5909 12.255 10.8009C9.87115 10.6813 7.7575 9.5395 6.3427 7.80362C6.09585 8.22716 5.95424 8.72022 5.95424 9.2458C5.95424 10.2407 6.461 11.119 7.23022 11.6332C6.76026 11.6185 6.31768 11.4895 5.93114 11.2741C5.93093 11.2863 5.93093 11.2985 5.93093 11.3105C5.93093 12.7002 6.92005 13.8594 8.23196 14.1227C7.99152 14.1886 7.73761 14.2235 7.47643 14.2235C7.29118 14.2235 7.11171 14.2057 6.93673 14.1723C7.30166 15.3116 8.36073 16.141 9.61617 16.1643C8.63432 16.9337 7.39771 17.3921 6.0535 17.3921C5.82248 17.3921 5.59359 17.3786 5.36963 17.3519C6.63833 18.166 8.14639 18.6407 9.76612 18.6407C15.042 18.6407 17.9272 14.2701 17.9272 10.4794C17.9272 10.3551 17.9244 10.2313 17.9189 10.1085C18.4797 9.70421 18.966 9.19917 19.3503 8.62396Z" fill="#F1F2F2"/>
</g>
<defs>
<clipPath id="clip0_1_8462">
<rect width="24" height="24" fill="white"/>
</clipPath>
</defs>
</svg>
